General
Complete name                    : Pinocchio.2008.avi
Format                           : AVI
File size                        : 1.37 GiB
Duration                         : 2h 58mn
Overall bit rate                 : 1 096 Kbps

Video
ID                               : 0
Format                           : MPEG-4 Visual
Codec ID/Hint                    : XviD
Duration                         : 2h 58mn
Bit rate                         : 955 Kbps
Width                            : 718 pixels
Height                           : 576 pixels
Display aspect ratio             : 16:9
Frame rate                       : 25.000 fps
Resolution                       : 8 bits
Colorimetry                      : 4:2:0
Scan type                        : Progressive
Bits/(Pixel*Frame)               : 0.092
Stream size                      : 1.19 GiB (87%)
Writing library                  : XviD 1.1.2 (UTC 2006-11-01)

Audio
ID                               : 1
Format                           : MPEG Audio
Format_Settings_ModeExtension    : MS Stereo
Codec ID/Hint                    : MP3
Duration                         : 2h 58mn
Bit rate mode                    : Constant
Bit rate                         : 128 Kbps
Channel(s)                       : 2 channels
Sampling rate                    : 48.0 KHz
Stream size                      : 164 MiB (12%)



General..........................: Optional subtitles in .srt

Complete name                    : Pinocchio.2008.Dan.srt
File size                        : 130 KiB


Complete name                    : Pinocchio.2008.Fin.srt
File size                        : 133 KiB


Complete name                    : Pinocchio.2008.Nor.srt
File size                        : 130 KiB

Complete name                    : Pinocchio.2008.Swe.srt
File size                        : 132 KiB